<?xml version="1.0" encoding="UTF-8"?>
<svg version="1.1" xmlns="http://www.w3.org/2000/svg" width="300" height="300">
<path d="M0 0 C99 0 198 0 300 0 C300 99 300 198 300 300 C201 300 102 300 0 300 C0 201 0 102 0 0 Z " fill="#E0BABA" transform="translate(0,0)"/>
<path d="M0 0 C1 1 1 1 1.11352539 4.69360352 C1.11336624 6.33871292 1.10766988 7.98382731 1.09765625 9.62890625 C1.09553383 10.92525246 1.09553383 10.92525246 1.09336853 12.24778748 C1.08775239 15.01939292 1.07519719 17.7909188 1.0625 20.5625 C1.05748708 22.4368478 1.05292381 24.31119685 1.04882812 26.18554688 C1.03777772 30.79039544 1.0205023 35.39518421 1 40 C-0.65 40 -2.3 40 -4 40 C-4.14695312 39.26136719 -4.29390625 38.52273437 -4.4453125 37.76171875 C-7.3171293 24.77252438 -12.99362873 13.86650087 -24.125 6.3125 C-38.46452678 -2.39294259 -55.5631528 -4.3383468 -71.75 -0.4375 C-90.31751658 5.16778802 -104.90889543 18.10003409 -114 35 C-116.45379398 39.85155945 -118.32337627 44.8401374 -120 50 C-120.61875 51.79824219 -120.61875 51.79824219 -121.25 53.6328125 C-128.57342244 77.44083853 -125.50648624 105.60142415 -114.22460938 127.55810547 C-110.96096631 133.48140571 -106.90173234 138.34032852 -102 143 C-101.01193359 143.96486328 -101.01193359 143.96486328 -100.00390625 144.94921875 C-86.926897 157.07899996 -70.81312966 162.40528167 -53.19140625 162.140625 C-36.99789099 161.42707965 -21.33548028 156.00094222 -10.08203125 143.9453125 C-3.69117531 136.28718662 -0.08080806 127.56022281 2.12890625 117.8984375 C2.41636719 117.27195313 2.70382812 116.64546875 3 116 C4.32 115.67 5.64 115.34 7 115 C7 126.88 7 138.76 7 151 C-24.6804513 169.10311503 -56.25331318 176.79857524 -92.46948242 167.47802734 C-105.84899551 163.73497634 -117.66109223 157.33277245 -128 148 C-128.83015625 147.28585938 -129.6603125 146.57171875 -130.515625 145.8359375 C-144.59643858 132.92132628 -153.03710368 112.80797642 -154.12109375 93.88623047 C-154.60381887 82.53494936 -153.55978763 72.04500961 -151 61 C-150.7834375 59.94296875 -150.566875 58.8859375 -150.34375 57.796875 C-145.48011676 35.67892382 -131.71601999 16.45252846 -113 4 C-79.17898352 -17.20511163 -35.54479067 -17.59713597 0 0 Z " fill="#432B26" transform="translate(261,65)"/>
<path d="M0 0 C-0.78737592 11.28572145 -6.04783882 21.29886746 -13 30 C-13.58394531 30.75925781 -14.16789062 31.51851562 -14.76953125 32.30078125 C-22.63452785 41.88779816 -33.71705822 47.96228714 -44.22265625 54.2734375 C-49.27787459 57.15979633 -49.27787459 57.15979633 -52 62 C-53.31291446 77.28631287 -52.95284009 91.86887953 -42.79296875 104.22265625 C-36.35621483 110.60331645 -28.27371586 116 -19 116 C-19.44730469 115.61070312 -19.89460938 115.22140625 -20.35546875 114.8203125 C-27.98068899 107.76413855 -32.75543383 98.4099632 -33.3359375 87.9140625 C-33.50456837 79.87815299 -33.5516502 72.93382227 -29 66 C-28.57589844 65.31808594 -28.15179688 64.63617188 -27.71484375 63.93359375 C-23.10895929 57.17230932 -16.3381463 50.97070682 -8.421875 48.4375 C0.98157506 46.73881225 10.72447769 46.90205721 19 52 C26.68640775 57.41828743 32.3906704 63.84696101 35 73 C36.90908184 86.27179012 34.4593053 98.03822875 26.62109375 109.00390625 C19.63067154 117.61138998 8.86573914 123.10583737 -2 125 C-17.4275908 126.16827192 -31.30478667 123.71920944 -43.6640625 113.87890625 C-52.70944312 105.55770263 -59.14144835 94.04900401 -60.20166016 81.63964844 C-60.3041335 79.06822382 -60.32883224 76.51089258 -60.3125 73.9375 C-60.30512817 72.55594727 -60.30512817 72.55594727 -60.29760742 71.14648438 C-59.94257396 50.21589633 -52.74140136 31.59799284 -38.375 16.28515625 C-28.58201586 6.86263039 -13.98681723 -0.90237531 0 0 Z " fill="#412A26" transform="translate(220,91)"/>
<path d="M0 0 C20.46 0 40.92 0 62 0 C62.495 1.98 62.495 1.98 63 4 C62.32453125 4.24234375 61.6490625 4.4846875 60.953125 4.734375 C54.07990955 7.10258961 54.07990955 7.10258961 49 12 C46.88639352 18.67330459 46.71239912 24.88814037 46.72875977 31.85351562 C46.72091965 33.60162033 46.72091965 33.60162033 46.71292114 35.38504028 C46.70270941 37.90691284 46.69690569 40.42880631 46.69503975 42.95069885 C46.69136165 46.95479791 46.6749413 50.9587317 46.65428162 54.96276855 C46.60529303 64.91283495 46.57433125 74.86294733 46.55297852 84.81311035 C46.53636437 92.54146355 46.51328325 100.26967043 46.46995777 107.99792624 C46.45192492 111.31836328 46.44138296 114.63842536 46.44125557 117.9589386 C46.44003678 141.28348536 45.9397769 163.07621904 29.375 181.1875 C21.010715 189.2306992 9.72442474 193.27793848 -1.75 193.3125 C-3.04421875 193.32925781 -4.3384375 193.34601563 -5.671875 193.36328125 C-9 193 -9 193 -10.97265625 191.6796875 C-12 190 -12 190 -11.6875 186.8125 C-11.3471875 185.4203125 -11.3471875 185.4203125 -11 184 C-6.45153225 182.9422168 -4.2325173 183.20118015 0 185 C3.85425953 185.56207951 5.39479438 185.41788007 8.625 183.1875 C22.37300726 164.7362271 18.41364124 133.93393484 18.26670837 112.10947037 C18.24420437 108.51067406 18.23136864 104.91186603 18.21818924 101.31302547 C18.18472706 92.35903128 18.12889372 83.40534945 18.05739212 74.45158291 C18.01440246 69.0507513 17.98025467 63.64995632 17.953125 58.24902344 C17.92097786 52.04022583 17.86575338 45.83197275 17.78845215 39.62356567 C17.76300806 37.43260739 17.74346757 35.24157185 17.73010254 33.05050659 C17.70916563 30.07078604 17.66318251 27.09256401 17.609375 24.11328125 C17.60812622 23.26402069 17.60687744 22.41476013 17.60559082 21.5397644 C17.47254884 16.25624275 16.51704594 13.18138572 13 9 C10.14521674 7.09681116 8.58058692 6.5380901 5.3125 5.875 C4.50425781 5.70742188 3.69601563 5.53984375 2.86328125 5.3671875 C2.24839844 5.24601562 1.63351563 5.12484375 1 5 C0.67 3.35 0.34 1.7 0 0 Z " fill="#432A25" transform="translate(55,55)"/>
<path d="M0 0 C46.86 0 93.72 0 142 0 C142 45.54 142 91.08 142 138 C141.67 138 141.34 138 141 138 C140.91548584 137.35264893 140.83097168 136.70529785 140.74389648 136.03833008 C136.84817955 107.10491442 128.1822978 79.66412664 109 57 C108.08852209 55.86694735 107.17844264 54.73276874 106.26953125 53.59765625 C83.4015217 25.48722358 47.95065426 5.84540796 11.82080078 1.75317383 C9.98705819 1.59651211 8.14968353 1.48413962 6.3125 1.375 C4.51232422 1.26285156 4.51232422 1.26285156 2.67578125 1.1484375 C1.79277344 1.09945312 0.90976563 1.05046875 0 1 C0 0.67 0 0.34 0 0 Z " fill="#FEFEFE" transform="translate(158,0)"/>
<path d="M0 0 C0.33 0 0.66 0 1 0 C1 45.21 1 90.42 1 137 C-44.54 137 -90.08 137 -137 137 C-137 136.67 -137 136.34 -137 136 C-136.1028125 135.90203125 -135.205625 135.8040625 -134.28125 135.703125 C-103.8109436 132.05172465 -75.68984931 120.71341122 -52 101 C-51.47196777 100.56300781 -50.94393555 100.12601562 -50.39990234 99.67578125 C-43.37653933 93.78331793 -37.59025784 87.23918281 -32 80 C-31.28328125 79.13375 -30.5665625 78.2675 -29.828125 77.375 C-11.99146505 55.11080034 -3.64321926 27.87581075 0 0 Z " fill="#FEFEFE" transform="translate(299,163)"/>
<path d="M0 0 C0.33 0 0.66 0 1 0 C1.09796875 1.1859375 1.1959375 2.371875 1.296875 3.59375 C3.92684861 33.03475838 13.92138741 62.05619037 33 85 C33.46164551 85.56557617 33.92329102 86.13115234 34.39892578 86.71386719 C58.5678865 116.26522595 92.91700906 135.18621674 130.7890625 140.53515625 C133.19749745 140.75608504 135.58284303 140.93773132 138 141 C138 141.33 138 141.66 138 142 C92.46 142 46.92 142 0 142 C0 95.14 0 48.28 0 0 Z " fill="#FEFEFE" transform="translate(0,158)"/>
<path d="M0 0 C45.54 0 91.08 0 138 0 C138 0.33 138 0.66 138 1 C137.35264893 1.08451416 136.70529785 1.16902832 136.03833008 1.25610352 C104.34426295 5.52352619 76.43401912 15.97983913 52 37 C51.04480469 37.80953125 50.08960938 38.6190625 49.10546875 39.453125 C41.34363455 46.18974034 34.98472567 53.66100581 29 62 C28.6071582 62.54462891 28.21431641 63.08925781 27.80957031 63.65039062 C11.2645615 86.97984039 2.81183154 113.63546482 1 142 C0.67 142 0.34 142 0 142 C0 95.14 0 48.28 0 0 Z " fill="#FEFEFE" transform="translate(0,0)"/>
<path d="M0 0 C1.19393714 3.58181143 0.83195691 4.13814466 -0.75 7.4375 C-7.39298346 19.92266891 -19.07303825 30.39225847 -32.41796875 35.2421875 C-33.27003906 35.49226563 -34.12210938 35.74234375 -35 36 C-28.09210839 20.8289901 -19.76406084 7.30595175 -3.375 1.0625 C-2.26125 0.711875 -1.1475 0.36125 0 0 Z " fill="#D9B4B4" transform="translate(207,101)"/>
<path d="M0 0 C4.49159136 3.65022699 8.68032389 7.22796559 12 12 C11.80610995 16.06326096 9.25112119 18.05526421 6.4375 20.75 C5.61121094 21.54921875 4.78492188 22.3484375 3.93359375 23.171875 C3.29550781 23.77515625 2.65742188 24.3784375 2 25 C-1.3702985 23.87656717 -2.32859216 22.82104006 -4.625 20.1875 C-5.23601562 19.50042969 -5.84703125 18.81335938 -6.4765625 18.10546875 C-8.04792949 15.93375899 -8.79578566 14.66525899 -9 12 C-7.01959997 7.37002367 -3.74544316 3.32928281 0 0 Z " fill="#DAB4B4" transform="translate(204,153)"/>
<path d="M0 0 C3.23997889 3.79000183 5.58495927 7.9246672 7.375 12.5625 C6.85229008 17.35400764 4.53527759 19.30181209 1.17578125 22.59375 C-1 24 -1 24 -2.97265625 24.00390625 C-5.78516545 22.61119938 -7.58446923 20.69856889 -9.75 18.4375 C-10.54921875 17.61121094 -11.3484375 16.78492188 -12.171875 15.93359375 C-12.77515625 15.29550781 -13.3784375 14.65742188 -14 14 C-12.41438362 10.14406926 -9.93490046 7.66783709 -7 4.75 C-6.113125 3.85796875 -5.22625 2.9659375 -4.3125 2.046875 C-2 0 -2 0 0 0 Z " fill="#D9B4B4" transform="translate(241,154)"/>
<path d="M0 0 C1.65625 1.6796875 1.65625 1.6796875 3.5 3.875 C5.28933258 5.99035504 7.04019124 8.04019124 9 10 C9 13 9 13 7.390625 14.71875 C6.33101562 15.60046875 6.33101562 15.60046875 5.25 16.5 C4.55390625 17.0878125 3.8578125 17.675625 3.140625 18.28125 C1.12773939 19.89743552 -0.93485859 21.45114395 -3 23 C-6.3 19.7 -9.6 16.4 -13 13 C-11.10523955 9.21047909 -9.45852168 7.1893105 -6.5 4.25 C-5.7059375 3.45078125 -4.911875 2.6515625 -4.09375 1.828125 C-2 0 -2 0 0 0 Z " fill="#DBB6B6" transform="translate(223,172)"/>
<path d="M0 0 C1.15039081 1.15039081 2.30044707 2.30111734 3.44921875 3.453125 C4.50916662 4.51040298 5.57454233 5.56225995 6.64453125 6.609375 C10.3204977 10.22725621 13.78734073 13.96231539 17.15625 17.8671875 C19.22850464 20.26432953 21.33051222 22.63334823 23.4375 25 C24.11683594 25.763125 24.79617187 26.52625 25.49609375 27.3125 C25.99238281 27.869375 26.48867187 28.42625 27 29 C22.66023033 30.49883693 20.29119366 29.21169694 16.30859375 27.2890625 C8.14760374 22.73216452 3.43761434 16.08717556 0.6875 7.1875 C0 4 0 4 0 0 Z " fill="#D5B1B0" transform="translate(194,177)"/>
<path d="M0 0 C-3.50897269 4.18423892 -7.08060535 8.19588166 -11 12 C-14.61477175 10.50198648 -16.68620463 8.42462583 -19.25 5.5 C-19.95640625 4.7059375 -20.6628125 3.911875 -21.390625 3.09375 C-23 1 -23 1 -23 -1 C-15.41662929 -5.04446438 -7.45165581 -3.31184702 0 0 Z " fill="#D8B3B3" transform="translate(234,149)"/>
<path d="M0 0 C1 3 1 3 0.14453125 5.3046875 C-3.54325295 12.4207051 -7.38775177 19.49435937 -15 23 C-17.09375 22.8203125 -17.09375 22.8203125 -19 22 C-19.66 21.01 -20.32 20.02 -21 19 C-18.25316507 16.3924778 -15.50198763 13.78958261 -12.75 11.1875 C-11.97269531 10.44951172 -11.19539062 9.71152344 -10.39453125 8.95117188 C-9.64042969 8.23896484 -8.88632813 7.52675781 -8.109375 6.79296875 C-7.41811523 6.1383667 -6.72685547 5.48376465 -6.01464844 4.80932617 C-4.0854957 3.07678243 -2.09867073 1.52050752 0 0 Z " fill="#D7B2B2" transform="translate(246,181)"/>
<path d="M0 0 C0.99 0.33 1.98 0.66 3 1 C0.36 3.64 -2.28 6.28 -5 9 C-5.33 8.01 -5.66 7.02 -6 6 C-4.02 4.02 -2.04 2.04 0 0 Z " fill="#4A322F" transform="translate(200,146)"/>
</svg>
